<?xml version="1.0" encoding="UTF-8"?><svg xmlns="http://www.w3.org/2000/svg" width="7500" height="3000" viewBox="0 0 7500 3000"><g id="a"><rect width="7500" height="3000"/></g><g id="b"><polygon points="3750 892.64 3576.79 992.64 3750 1092.64 3750 892.64" style="fill:#b2b2b2;"/><polygon points="3923.21 992.64 3750 892.64 3750 1092.64 3923.21 992.64" style="fill:#b2b2b2;"/><polygon points="3576.79 992.64 3750 1292.64 3750 1092.64 3576.79 992.64" style="fill:#9b9b9b;"/><polygon points="3576.79 1192.64 3750 1292.64 3576.79 992.64 3576.79 1192.64" style="fill:#939393;"/><polygon points="3750 1092.64 3750 1292.64 3923.21 992.64 3750 1092.64" style="fill:#a5a5a5;"/><polygon points="3750 1292.64 3923.21 1192.64 3923.21 992.64 3750 1292.64" style="fill:#939393;"/><line x1="3576.79" y1="1107.36" x2="3403.59" y2="1207.36" style="fill:none; stroke:#545454; stroke-linecap:round; stroke-linejoin:round; stroke-width:16px;"/><polyline points="3576.79 1307.36 3403.59 1207.36 3403.59 1407.36" style="fill:none; stroke:#545454; stroke-linecap:round; stroke-linejoin:round; stroke-width:16px;"/><line x1="3750" y1="1207.36" x2="3576.79" y2="1107.36" style="fill:none; stroke:#545454; stroke-linecap:round; stroke-linejoin:round; stroke-width:16px;"/><polyline points="3576.79 1307.36 3403.59 1407.36 3576.79 1507.36" style="fill:none; stroke:#545454; stroke-linecap:round; stroke-linejoin:round; stroke-width:16px;"/><line x1="3923.21" y1="1107.36" x2="3750" y2="1207.36" style="fill:none; stroke:#545454; stroke-linecap:round; stroke-linejoin:round; stroke-width:16px;"/><line x1="4096.41" y1="1207.36" x2="3923.21" y2="1107.36" style="fill:none; stroke:#545454; stroke-linecap:round; stroke-linejoin:round; stroke-width:16px;"/><polyline points="4096.41 1407.36 4096.41 1207.36 3923.21 1307.36" style="fill:none; stroke:#545454; stroke-linecap:round; stroke-linejoin:round; stroke-width:16px;"/><polyline points="3923.21 1507.36 4096.41 1407.36 3923.21 1307.36" style="fill:none; stroke:#545454; stroke-linecap:round; stroke-linejoin:round; stroke-width:16px;"/><line x1="3750" y1="1207.36" x2="3576.79" y2="1307.36" style="fill:none; stroke:#545454; stroke-linecap:round; stroke-linejoin:round; stroke-width:16px;"/><polyline points="3750 1407.36 3576.79 1307.36 3576.79 1507.36" style="fill:none; stroke:#545454; stroke-linecap:round; stroke-linejoin:round; stroke-width:16px;"/><line x1="3923.21" y1="1307.36" x2="3750" y2="1207.36" style="fill:none; stroke:#545454; stroke-linecap:round; stroke-linejoin:round; stroke-width:16px;"/><polyline points="3923.21 1507.36 3923.21 1307.36 3750 1407.36" style="fill:none; stroke:#545454; stroke-linecap:round; stroke-linejoin:round; stroke-width:16px;"/><polyline points="3750 1407.36 3576.79 1507.36 3750 1607.36" style="fill:none; stroke:#545454; stroke-linecap:round; stroke-linejoin:round; stroke-width:16px;"/><polygon points="3750 1607.36 3923.21 1507.36 3750 1407.36 3750 1607.36" style="fill:none; stroke:#545454; stroke-linecap:round; stroke-linejoin:round; stroke-width:16px;"/></g><g id="c"><path d="M2927.61,2199.22l46.4-292h39.6l-11.6,72-7.2,42h.8c4.26-14.66,12.13-26,23.6-34,11.46-8,25.6-12,42.4-12,21.86,0,38.2,6.94,49,20.8,10.8,13.87,14.33,32.54,10.6,56l-23.2,147.2h-39.6l22.4-142.8c2.4-14.93.26-26.6-6.4-35-6.67-8.4-16.94-12.6-30.8-12.6s-26.4,4.47-36,13.4c-9.6,8.94-15.74,21.4-18.4,37.4l-22,139.6h-39.6Z" style="fill:#fff;"/><path d="M3251.61,2203.22c-26.67,0-46.54-7.53-59.6-22.6-13.07-15.06-17.47-35.8-13.2-62.2l9.2-58.8c4-26.13,15-46.73,33-61.8,18-15.06,40.33-22.6,67-22.6s46.53,7.54,59.6,22.6c13.06,15.07,17.6,35.67,13.6,61.8l-9.6,58.8c-4,26.4-15,47.14-33,62.2-18,15.07-40.34,22.6-67,22.6ZM3257.21,2168.02c14.93,0,27.13-4.2,36.6-12.6,9.46-8.4,15.53-20.73,18.2-37l9.2-58.8c2.66-16,.6-28.26-6.2-36.8-6.8-8.53-17.67-12.8-32.6-12.8s-27.14,4.27-36.6,12.8c-9.47,8.54-15.54,20.8-18.2,36.8l-9.2,58.8c-2.67,16.27-.6,28.6,6.2,37,6.8,8.4,17.66,12.6,32.6,12.6Z" style="fill:#fff;"/><path d="M3397.21,2199.22l34.8-220h34l-4.4,27.2h2.4c3.2-9.6,8.33-17.2,15.4-22.8,7.06-5.6,15.4-8.4,25-8.4,19.2,0,29.73,10.4,31.6,31.2h1.6c2.93-9.6,8.13-17.2,15.6-22.8,7.46-5.6,16-8.4,25.6-8.4,13.86,0,23.86,5.2,30,15.6,6.13,10.4,7.86,24.14,5.2,41.2l-26.4,167.2h-36l26-166.8c1.33-8.53.53-15.2-2.4-20-2.94-4.8-7.87-7.2-14.8-7.2s-12.74,2.34-17.4,7c-4.67,4.67-7.67,11.4-9,20.2l-26.4,166.8h-30.4l26-166.8c1.33-8.53.4-15.2-2.8-20-3.2-4.8-8.27-7.2-15.2-7.2-14.4,0-22.94,9.07-25.6,27.2l-26.4,166.8h-36Z" style="fill:#fff;"/><path d="M3731.6,2203.22c-26.4,0-46.14-7.73-59.2-23.2-13.07-15.46-17.6-36-13.6-61.6l9.2-58.8c2.66-16.8,8.53-31.53,17.6-44.2,9.06-12.66,20.66-22.53,34.8-29.6,14.13-7.06,30-10.6,47.6-10.6,26.4,0,46.2,7.74,59.4,23.2,13.2,15.47,17.66,35.87,13.4,61.2l-6,39.2h-134.4l-3.2,19.6c-5.6,34.67,7.73,52,40,52,26.4,0,43.2-9.33,50.4-28h39.2c-5.6,18.67-17.07,33.47-34.4,44.4-17.34,10.94-37.6,16.4-60.8,16.4ZM3706.4,2059.62l-1.6,10.8h96l1.6-10.8c2.66-16.8.73-29.66-5.8-38.6-6.54-8.93-17.8-13.4-33.8-13.4s-28.4,4.47-38,13.4c-9.6,8.94-15.74,21.8-18.4,38.6Z" style="fill:#fff;"/><path d="M3895.2,2199.22l34.8-220h38l-6.4,40.8c11.73-29.86,33.73-44.8,66-44.8,23.46,0,40.86,7.27,52.2,21.8,11.33,14.54,15,34.34,11,59.4l-2.4,14h-40.4l2-10.8c2.66-16.26.66-28.86-6-37.8-6.67-8.93-17.47-13.4-32.4-13.4s-26.87,4.54-36.6,13.6c-9.74,9.07-15.8,21.6-18.2,37.6l-22,139.6h-39.6Z" style="fill:#fff;"/><path d="M4211.19,2203.22c-25.87,0-45.27-7.6-58.2-22.8-12.94-15.2-17.4-35.86-13.4-62l22-139.2h39.6l-22,139.2c-2.4,16-.27,28.34,6.4,37,6.66,8.67,17.06,13,31.2,13s26.46-4.33,36.2-13c9.73-8.66,15.8-21,18.2-37l22-139.2h39.6l-22,139.2c-2.67,17.34-8.6,32.34-17.8,45-9.2,12.67-20.8,22.47-34.8,29.4-14,6.93-29.67,10.4-47,10.4Z" style="fill:#fff;"/><path d="M4367.59,2199.22l34.8-220h39.2l-6.8,42h.8c4.26-14.66,12.13-26,23.6-34,11.46-8,25.6-12,42.4-12,21.86,0,38.2,6.94,49,20.8,10.8,13.87,14.33,32.54,10.6,56l-23.2,147.2h-39.6l22.4-142.8c2.4-14.93.26-26.6-6.4-35-6.67-8.4-16.94-12.6-30.8-12.6s-26.4,4.47-36,13.4c-9.6,8.94-15.74,21.4-18.4,37.4l-22,139.6h-39.6Z" style="fill:#fff;"/></g></svg>