<?xml version="1.0" encoding="UTF-8"?><svg xmlns="http://www.w3.org/2000/svg" width="1000" height="1000" viewBox="0 0 1000 1000"><g id="a"><rect x="-3250" y="-750" width="7500" height="3000"/></g><g id="b"><polygon points="500 142.64 326.79 242.64 500 342.64 500 142.64" style="fill:#b2b2b2;"/><polygon points="673.21 242.64 500 142.64 500 342.64 673.21 242.64" style="fill:#b2b2b2;"/><polygon points="326.79 242.64 500 542.64 500 342.64 326.79 242.64" style="fill:#9b9b9b;"/><polygon points="326.79 442.64 500 542.64 326.79 242.64 326.79 442.64" style="fill:#939393;"/><polygon points="500 342.64 500 542.64 673.21 242.64 500 342.64" style="fill:#a5a5a5;"/><polygon points="500 542.64 673.21 442.64 673.21 242.64 500 542.64" style="fill:#939393;"/><line x1="326.79" y1="357.36" x2="153.59" y2="457.36" style="fill:none; stroke:#545454; stroke-linecap:round; stroke-linejoin:round; stroke-width:16px;"/><polyline points="326.79 557.36 153.59 457.36 153.59 657.36" style="fill:none; stroke:#545454; stroke-linecap:round; stroke-linejoin:round; stroke-width:16px;"/><line x1="500" y1="457.36" x2="326.79" y2="357.36" style="fill:none; stroke:#545454; stroke-linecap:round; stroke-linejoin:round; stroke-width:16px;"/><polyline points="326.79 557.36 153.59 657.36 326.79 757.36" style="fill:none; stroke:#545454; stroke-linecap:round; stroke-linejoin:round; stroke-width:16px;"/><line x1="673.21" y1="357.36" x2="500" y2="457.36" style="fill:none; stroke:#545454; stroke-linecap:round; stroke-linejoin:round; stroke-width:16px;"/><line x1="846.41" y1="457.36" x2="673.21" y2="357.36" style="fill:none; stroke:#545454; stroke-linecap:round; stroke-linejoin:round; stroke-width:16px;"/><polyline points="846.41 657.36 846.41 457.36 673.21 557.36" style="fill:none; stroke:#545454; stroke-linecap:round; stroke-linejoin:round; stroke-width:16px;"/><polyline points="673.21 757.36 846.41 657.36 673.21 557.36" style="fill:none; stroke:#545454; stroke-linecap:round; stroke-linejoin:round; stroke-width:16px;"/><line x1="500" y1="457.36" x2="326.79" y2="557.36" style="fill:none; stroke:#545454; stroke-linecap:round; stroke-linejoin:round; stroke-width:16px;"/><polyline points="500 657.36 326.79 557.36 326.79 757.36" style="fill:none; stroke:#545454; stroke-linecap:round; stroke-linejoin:round; stroke-width:16px;"/><line x1="673.21" y1="557.36" x2="500" y2="457.36" style="fill:none; stroke:#545454; stroke-linecap:round; stroke-linejoin:round; stroke-width:16px;"/><polyline points="673.21 757.36 673.21 557.36 500 657.36" style="fill:none; stroke:#545454; stroke-linecap:round; stroke-linejoin:round; stroke-width:16px;"/><polyline points="500 657.36 326.79 757.36 500 857.36" style="fill:none; stroke:#545454; stroke-linecap:round; stroke-linejoin:round; stroke-width:16px;"/><polygon points="500 857.36 673.21 757.36 500 657.36 500 857.36" style="fill:none; stroke:#545454; stroke-linecap:round; stroke-linejoin:round; stroke-width:16px;"/></g></svg>